<?xml version="1.0" standalone="no"?>
<!DOCTYPE svg PUBLIC "-//W3C//DTD SVG 20010904//EN"
 "http://www.w3.org/TR/2001/REC-SVG-20010904/DTD/svg10.dtd">
<svg version="1.0" xmlns="http://www.w3.org/2000/svg"
 width="1048.000000pt" height="1048.000000pt" viewBox="0 0 1048.000000 1048.000000"
 preserveAspectRatio="xMidYMid meet">
<metadata>
Created by potrace 1.11, written by Peter Selinger 2001-2013
</metadata>
<g transform="translate(0.000000,1048.000000) scale(0.100000,-0.100000)"
fill="#000000" stroke="none">
<path d="M4978 10476 c-1 -2 -50 -6 -108 -10 -58 -3 -116 -8 -130 -10 -14 -2
-56 -7 -95 -11 -81 -8 -134 -14 -155 -20 -8 -2 -40 -7 -70 -10 -30 -4 -73 -10
-95 -15 -22 -5 -56 -11 -75 -14 -19 -4 -53 -10 -75 -15 -22 -6 -83 -20 -135
-32 -432 -99 -938 -291 -1303 -496 -42 -24 -99 -55 -125 -70 -74 -41 -287
-178 -405 -260 -92 -65 -372 -283 -387 -302 -3 -3 -48 -44 -100 -91 -150 -135
-330 -321 -480 -496 -118 -137 -308 -394 -409 -554 -84 -132 -96 -152 -123
-200 -14 -25 -36 -63 -48 -85 -211 -376 -391 -830 -499 -1260 -28 -112 -83
-375 -94 -455 -3 -19 -9 -57 -13 -85 -3 -27 -8 -59 -10 -70 -2 -10 -6 -49 -10
-85 -3 -36 -8 -73 -10 -84 -25 -130 -25 -873 0 -1003 3 -12 7 -55 11 -96 3
-41 8 -85 10 -98 2 -13 6 -42 10 -64 77 -533 241 -1062 481 -1550 282 -576
650 -1072 1137 -1534 56 -52 57 -54 58 -110 1 -64 5 -96 21 -166 50 -222 252
-428 508 -520 140 -50 227 -62 455 -64 198 -2 213 -3 260 -26 196 -92 303
-136 495 -205 139 -50 335 -112 405 -129 22 -5 85 -20 140 -34 86 -22 234 -53
340 -71 17 -3 46 -8 65 -11 45 -8 172 -24 235 -31 28 -2 59 -6 70 -9 126 -26
840 -26 1030 0 17 2 71 9 120 15 50 5 99 12 110 14 11 2 43 7 70 10 105 14
398 77 556 120 302 82 593 189 885 327 60 28 62 28 260 30 171 1 290 11 369
33 60 16 100 29 114 35 172 84 241 131 321 217 121 129 175 254 186 429 l6 90
137 135 c168 167 296 307 431 473 8 10 22 27 31 37 8 10 24 31 35 45 10 15 43
59 73 98 253 337 506 798 668 1217 60 156 171 503 188 587 1 10 10 45 18 78
19 74 66 296 71 339 3 17 11 74 20 126 8 52 18 127 21 165 4 39 8 81 10 95 26
155 26 846 1 1000 -3 14 -7 54 -11 90 -5 59 -12 111 -30 225 -4 22 -8 51 -10
65 -3 20 -24 129 -51 265 -2 11 -20 81 -39 155 -20 74 -37 142 -39 150 -15 60
-88 276 -128 380 -16 41 -31 82 -33 90 -6 29 -106 255 -167 380 -138 281 -310
564 -489 806 -80 110 -70 97 -205 259 -557 673 -1307 1208 -2149 1532 -49 19
-94 36 -100 37 -5 2 -17 6 -25 9 -150 56 -502 153 -695 191 -44 9 -91 18 -105
21 -14 3 -54 10 -90 16 -36 5 -76 12 -90 14 -23 4 -56 8 -155 20 -22 3 -71 8
-110 11 -38 3 -83 8 -100 10 -33 5 -651 14 -657 10z m-3134 -9238 c-4 -6 -2
-8 3 -5 6 4 27 -8 47 -26 20 -17 52 -43 71 -57 19 -14 32 -31 30 -38 -3 -7 0
-10 5 -7 14 8 101 -55 93 -68 -3 -6 -1 -7 4 -4 6 4 39 -15 74 -41 36 -26 83
-59 107 -75 23 -15 42 -32 42 -38 0 -5 3 -8 8 -6 5 4 167 -93 217 -130 13 -10
54 -33 122 -68 29 -16 51 -31 49 -34 -6 -9 -89 -7 -103 2 -8 5 -13 3 -13 -3 0
-6 -5 -8 -11 -4 -7 4 -35 8 -63 10 -46 2 -79 7 -126 19 -8 2 -23 4 -33 4 -10
1 -16 5 -13 10 3 5 0 9 -7 8 -32 -1 -48 4 -42 13 3 6 -1 7 -10 4 -9 -4 -48 10
-90 32 -64 32 -73 40 -62 53 11 14 10 14 -6 2 -15 -12 -20 -11 -39 5 -12 11
-28 24 -35 29 -37 30 -43 37 -38 45 4 6 -2 7 -11 3 -13 -5 -16 -3 -11 10 3 9
3 16 -1 16 -18 -3 -32 2 -32 11 0 6 -11 22 -25 36 -14 14 -23 29 -20 34 3 4
-2 11 -11 14 -9 4 -14 13 -10 21 3 9 0 15 -9 15 -14 0 -19 14 -18 47 1 7 -3
10 -8 8 -11 -7 -23 60 -13 76 4 7 3 10 -3 6 -6 -4 -14 1 -17 10 -4 9 -1 20 6
25 10 6 10 8 1 8 -7 0 -13 12 -13 26 0 14 4 23 10 19 6 -4 7 -11 4 -17z m6804
-18 c-2 -22 -5 -40 -8 -40 -3 0 -6 -15 -7 -32 -2 -18 -7 -34 -13 -36 -6 -2 -8
-8 -4 -13 6 -11 -45 -109 -58 -109 -4 0 -7 -4 -5 -8 2 -9 -35 -61 -62 -89 -7
-8 -21 -11 -30 -8 -13 5 -13 4 -4 -6 10 -10 6 -17 -15 -36 -15 -13 -33 -21
-40 -18 -8 3 -10 0 -6 -6 4 -6 0 -15 -7 -20 -8 -5 -17 -3 -21 4 -5 8 -8 6 -8
-5 0 -16 -56 -55 -72 -50 -5 1 -8 -2 -8 -7 0 -11 -137 -64 -195 -76 -62 -13
-67 -14 -120 -20 -84 -10 -157 -10 -162 -1 -3 4 -9 2 -14 -5 -7 -11 -9 -10 -9
4 0 10 10 21 23 26 12 5 39 21 60 35 21 15 35 21 31 14 -5 -7 7 0 25 15 19 15
40 26 48 23 8 -3 11 -2 8 4 -3 5 9 17 27 26 18 9 47 28 64 40 17 13 35 24 39
24 4 0 23 11 41 25 19 14 37 27 41 28 5 1 15 7 23 14 8 7 56 42 105 78 50 36
101 75 114 85 13 11 29 16 35 13 6 -3 8 -3 4 2 -8 8 -4 12 69 73 53 43 70 52
57 30 -4 -8 -3 -10 2 -5 5 5 9 12 9 17 0 7 35 48 43 49 1 1 1 -17 0 -39z"/>
<path d="M1987 1079 c7 -7 15 -10 18 -7 3 3 -2 9 -12 12 -14 6 -15 5 -6 -5z"/>
<path d="M1955 971 c-3 -5 -2 -12 3 -15 5 -3 9 1 9 9 0 17 -3 19 -12 6z"/>
<path d="M1986 958 c3 -5 10 -6 15 -3 13 9 11 12 -6 12 -8 0 -12 -4 -9 -9z"/>
<path d="M2216 927 c3 -10 9 -15 12 -12 3 3 0 11 -7 18 -10 9 -11 8 -5 -6z"/>
<path d="M2310 856 c0 -2 8 -10 18 -17 15 -13 16 -12 3 4 -13 16 -21 21 -21
13z"/>
<path d="M2313 805 c0 -8 4 -12 9 -9 5 3 6 10 3 15 -9 13 -12 11 -12 -6z"/>
<path d="M2215 780 c-3 -5 -1 -10 4 -10 6 0 11 5 11 10 0 6 -2 10 -4 10 -3 0
-8 -4 -11 -10z"/>
<path d="M2340 726 c0 -2 8 -10 18 -17 15 -13 16 -12 3 4 -13 16 -21 21 -21
13z"/>
<path d="M2430 721 c0 -6 4 -13 10 -16 6 -3 7 1 4 9 -7 18 -14 21 -14 7z"/>
<path d="M2436 678 c3 -5 10 -6 15 -3 13 9 11 12 -6 12 -8 0 -12 -4 -9 -9z"/>
<path d="M8455 1060 c3 -5 8 -10 11 -10 2 0 4 5 4 10 0 6 -5 10 -11 10 -5 0
-7 -4 -4 -10z"/>
<path d="M8427 1039 c7 -7 15 -10 18 -7 3 3 -2 9 -12 12 -14 6 -15 5 -6 -5z"/>
<path d="M8353 1005 c0 -8 4 -12 9 -9 5 3 6 10 3 15 -9 13 -12 11 -12 -6z"/>
<path d="M8415 940 c3 -5 8 -10 11 -10 2 0 4 5 4 10 0 6 -5 10 -11 10 -5 0 -7
-4 -4 -10z"/>
<path d="M8236 922 c-3 -5 1 -9 9 -9 8 0 12 4 9 9 -3 4 -7 8 -9 8 -2 0 -6 -4
-9 -8z"/>
<path d="M8235 891 c-3 -5 -2 -12 3 -15 5 -3 9 1 9 9 0 17 -3 19 -12 6z"/>
<path d="M8095 831 c-3 -5 -2 -12 3 -15 5 -3 9 1 9 9 0 17 -3 19 -12 6z"/>
<path d="M8255 780 c3 -5 8 -10 11 -10 2 0 4 5 4 10 0 6 -5 10 -11 10 -5 0 -7
-4 -4 -10z"/>
<path d="M8130 700 c0 -5 5 -10 11 -10 5 0 7 5 4 10 -3 6 -8 10 -11 10 -2 0
-4 -4 -4 -10z"/>
<path d="M7890 659 c0 -5 5 -7 10 -4 6 3 10 8 10 11 0 2 -4 4 -10 4 -5 0 -10
-5 -10 -11z"/>
</g>
</svg>
